<svg width="30" height="25" viewBox="0 0 30 25" fill="none" xmlns="http://www.w3.org/2000/svg">
<path d="M1.00003 0.518158C0.734806 0.518158 0.480444 0.603945 0.292902 0.756648C0.10536 0.909351 0 1.11646 0 1.33241C0 1.54837 0.10536 1.75548 0.292902 1.90818C0.480444 2.06088 0.734806 2.14667 1.00003 2.14667H3.2201L4.02212 4.76369L7.01822 17.7674C7.06112 17.954 7.18273 18.1225 7.36205 18.2438C7.54136 18.3651 7.7671 18.4316 8.00025 18.4318H10.0003C8.93941 18.4318 7.92196 18.775 7.17179 19.3858C6.42163 19.9966 6.00019 20.825 6.00019 21.6888C6.00019 22.5526 6.42163 23.3811 7.17179 23.9919C7.92196 24.6027 8.93941 24.9459 10.0003 24.9459C11.0612 24.9459 12.0787 24.6027 12.8288 23.9919C13.579 23.3811 14.0004 22.5526 14.0004 21.6888C14.0004 20.825 13.579 19.9966 12.8288 19.3858C12.0787 18.775 11.0612 18.4318 10.0003 18.4318H24.0007C22.9398 18.4318 21.9224 18.775 21.1722 19.3858C20.4221 19.9966 20.0006 20.825 20.0006 21.6888C20.0006 22.5526 20.4221 23.3811 21.1722 23.9919C21.9224 24.6027 22.9398 24.9459 24.0007 24.9459C25.0616 24.9459 26.0791 24.6027 26.8293 23.9919C27.5794 23.3811 28.0009 22.5526 28.0009 21.6888C28.0009 20.825 27.5794 19.9966 26.8293 19.3858C26.0791 18.775 25.0616 18.4318 24.0007 18.4318H26.0008C26.2339 18.4316 26.4597 18.3651 26.639 18.2438C26.8183 18.1225 26.9399 17.954 26.9828 17.7674L29.9829 4.73926C30.0099 4.62175 30.0048 4.50083 29.968 4.38509C29.9311 4.26936 29.8634 4.16165 29.7697 4.06963C29.676 3.9776 29.5585 3.90351 29.4256 3.85262C29.2927 3.80173 29.1477 3.7753 29.0009 3.77518H5.78018L4.97015 1.13536C4.91617 0.959133 4.79137 0.802657 4.6156 0.690821C4.43984 0.578984 4.22319 0.518208 4.00012 0.518158H1.00003ZM8.83027 16.8033L6.20419 5.4037H27.7969L25.1708 16.8033H8.83027ZM12.0004 21.6888C12.0004 22.1207 11.7896 22.535 11.4146 22.8404C11.0395 23.1458 10.5308 23.3173 10.0003 23.3173C9.46986 23.3173 8.96114 23.1458 8.58605 22.8404C8.21097 22.535 8.00025 22.1207 8.00025 21.6888C8.00025 21.2569 8.21097 20.8427 8.58605 20.5373C8.96114 20.2319 9.46986 20.0603 10.0003 20.0603C10.5308 20.0603 11.0395 20.2319 11.4146 20.5373C11.7896 20.8427 12.0004 21.2569 12.0004 21.6888ZM26.0008 21.6888C26.0008 22.1207 25.7901 22.535 25.415 22.8404C25.0399 23.1458 24.5312 23.3173 24.0007 23.3173C23.4703 23.3173 22.9616 23.1458 22.5865 22.8404C22.2114 22.535 22.0007 22.1207 22.0007 21.6888C22.0007 21.2569 22.2114 20.8427 22.5865 20.5373C22.9616 20.2319 23.4703 20.0603 24.0007 20.0603C24.5312 20.0603 25.0399 20.2319 25.415 20.5373C25.7901 20.8427 26.0008 21.2569 26.0008 21.6888Z" fill="black"/>
</svg>
