<svg width="30" height="28" viewBox="0 0 30 28" fill="none" xmlns="http://www.w3.org/2000/svg">
<path d="M15 0C10.9294 0 10.4175 0.0168865 8.81812 0.0810553C7.21875 0.148601 6.12937 0.374881 5.175 0.709233C4.17393 1.04835 3.26717 1.58028 2.51813 2.26786C1.75514 2.94281 1.16458 3.75934 0.7875 4.66068C0.41625 5.51851 0.163125 6.50131 0.09 7.93666C0.01875 9.38046 0 9.83977 0 13.5109C0 17.1786 0.01875 17.638 0.09 19.0784C0.165 20.5171 0.41625 21.4982 0.7875 22.3577C1.17188 23.246 1.68375 23.9991 2.51813 24.7506C3.35063 25.502 4.18687 25.9647 5.17313 26.3092C6.12937 26.6435 7.21688 26.8715 8.81437 26.9374C10.4156 27.0015 10.9256 27.0184 15 27.0184C19.0744 27.0184 19.5825 27.0015 21.1838 26.9374C22.7794 26.8698 23.8725 26.6435 24.8269 26.3092C25.8273 25.9699 26.7334 25.438 27.4819 24.7506C28.3162 23.9991 28.8281 23.246 29.2125 22.3577C29.5819 21.4982 29.835 20.5171 29.91 19.0784C29.9812 17.638 30 17.1786 30 13.5092C30 9.83977 29.9812 9.38046 29.91 7.93835C29.835 6.50131 29.5819 5.51851 29.2125 4.66068C28.8355 3.75932 28.2449 2.94277 27.4819 2.26786C26.7331 1.58003 25.8262 1.04805 24.825 0.709233C23.8687 0.374881 22.7775 0.146913 21.1819 0.0810553C19.5806 0.0168865 19.0725 0 14.9963 0H15.0019H15ZM13.6556 2.43503H15.0019C19.0069 2.43503 19.4812 2.44686 21.0619 2.51271C22.5244 2.57182 23.3194 2.79303 23.8481 2.97709C24.5475 3.22195 25.0481 3.51577 25.5731 3.98859C26.0981 4.46142 26.4225 4.9106 26.6944 5.54215C26.9006 6.01666 27.1444 6.73265 27.21 8.0498C27.2831 9.47333 27.2981 9.90056 27.2981 13.5058C27.2981 17.1111 27.2831 17.54 27.21 18.9636C27.1444 20.2807 26.8988 20.995 26.6944 21.4712C26.4539 22.0578 26.07 22.5881 25.5712 23.0231C25.0462 23.4959 24.5475 23.788 23.8463 24.0329C23.3213 24.2186 22.5262 24.4382 21.0619 24.499C19.4812 24.5631 19.0069 24.5783 15.0019 24.5783C10.9969 24.5783 10.5206 24.5631 8.94 24.499C7.4775 24.4382 6.68437 24.2186 6.15562 24.0329C5.50406 23.8166 4.91461 23.4715 4.43062 23.0231C3.93141 22.5875 3.54698 22.0566 3.30562 21.4695C3.10125 20.995 2.85563 20.279 2.79 18.9619C2.71875 17.5383 2.70375 17.1111 2.70375 13.5025C2.70375 9.8955 2.71875 9.46996 2.79 8.04642C2.8575 6.72927 3.10125 6.01329 3.3075 5.53709C3.57938 4.90722 3.90562 4.45635 4.43062 3.98353C4.95563 3.51071 5.45437 3.21857 6.15562 2.97371C6.68437 2.78796 7.4775 2.56844 8.94 2.50765C10.3238 2.45023 10.86 2.43335 13.6556 2.43166V2.43503ZM23.0081 4.67756C22.7717 4.67756 22.5377 4.71949 22.3193 4.80096C22.1009 4.88243 21.9025 5.00184 21.7353 5.15237C21.5682 5.30291 21.4356 5.48162 21.3451 5.6783C21.2547 5.87498 21.2081 6.08578 21.2081 6.29867C21.2081 6.51156 21.2547 6.72236 21.3451 6.91904C21.4356 7.11572 21.5682 7.29443 21.7353 7.44496C21.9025 7.5955 22.1009 7.71491 22.3193 7.79637C22.5377 7.87784 22.7717 7.91977 23.0081 7.91977C23.4855 7.91977 23.9434 7.74898 24.2809 7.44496C24.6185 7.14095 24.8081 6.72861 24.8081 6.29867C24.8081 5.86872 24.6185 5.45639 24.2809 5.15237C23.9434 4.84836 23.4855 4.67756 23.0081 4.67756ZM15.0019 6.57223C13.9801 6.55787 12.9654 6.72672 12.0168 7.06893C11.0682 7.41115 10.2047 7.91989 9.47653 8.56555C8.74835 9.21121 8.17006 9.98089 7.77533 10.8298C7.3806 11.6786 7.17731 12.5897 7.17731 13.5101C7.17731 14.4304 7.3806 15.3415 7.77533 16.1903C8.17006 17.0392 8.74835 17.8089 9.47653 18.4546C10.2047 19.1002 11.0682 19.609 12.0168 19.9512C12.9654 20.2934 13.9801 20.4622 15.0019 20.4479C17.0241 20.4195 18.9529 19.676 20.3718 18.378C21.7908 17.08 22.5861 15.3316 22.5861 13.5101C22.5861 11.6886 21.7908 9.9401 20.3718 8.64209C18.9529 7.34409 17.0241 6.60065 15.0019 6.57223ZM15.0019 9.00558C16.3281 9.00558 17.6001 9.48006 18.5379 10.3247C19.4757 11.1693 20.0025 12.3148 20.0025 13.5092C20.0025 14.7036 19.4757 15.8492 18.5379 16.6938C17.6001 17.5384 16.3281 18.0128 15.0019 18.0128C13.6756 18.0128 12.4037 17.5384 11.4659 16.6938C10.5281 15.8492 10.0013 14.7036 10.0013 13.5092C10.0013 12.3148 10.5281 11.1693 11.4659 10.3247C12.4037 9.48006 13.6756 9.00558 15.0019 9.00558Z" fill="black"/>
</svg>
