<svg width="30" height="28" viewBox="0 0 30 28" fill="none" xmlns="http://www.w3.org/2000/svg">
<path d="M25.6171 3.92787C24.2356 2.67773 22.5903 1.68661 20.7772 1.01227C18.9641 0.337924 17.0194 -0.00615389 15.0565 8.33018e-05C6.83136 8.33018e-05 0.128076 6.00829 0.120542 13.3843C0.120542 15.7467 0.809894 18.045 2.11138 20.0798L0 27.0184L7.91813 25.1575C10.1086 26.2263 12.5626 26.7865 15.0565 26.7871H15.064C23.2911 26.7871 29.9925 20.7789 30 13.3961C30.0019 11.6366 29.6154 9.89417 28.8629 8.26918C28.1103 6.64418 27.0085 5.16874 25.6171 3.92787ZM15.0565 24.5209C12.8321 24.5216 10.6486 23.9849 8.73556 22.9674L8.28352 22.7242L3.58614 23.8286L4.84053 19.7201L4.54671 19.2962C3.30325 17.5237 2.64562 15.4715 2.65005 13.3775C2.65005 7.25451 8.21949 2.25949 15.064 2.25949C16.6946 2.25687 18.3097 2.54365 19.8161 3.10329C21.3225 3.66294 22.6904 4.48438 23.841 5.52027C24.9957 6.55211 25.911 7.7787 26.5343 9.12929C27.1575 10.4799 27.4763 11.9277 27.4724 13.3894C27.4648 19.5343 21.8954 24.5209 15.0565 24.5209ZM21.8653 16.1891C21.4942 16.022 19.6616 15.2131 19.3169 15.0983C18.9741 14.9885 18.7236 14.9311 18.4788 15.2654C18.2283 15.5981 17.5126 16.3563 17.2978 16.5741C17.0831 16.7987 16.8609 16.8241 16.4879 16.6586C16.1169 16.4897 14.9134 16.1385 13.4894 14.9953C12.3782 14.1087 11.6342 13.0111 11.412 12.6784C11.1973 12.3441 11.3913 12.1651 11.5777 11.9979C11.7416 11.8493 11.9488 11.6061 12.1352 11.4136C12.3236 11.2211 12.3857 11.0793 12.5082 10.8564C12.6306 10.6301 12.5722 10.4376 12.4799 10.2704C12.3857 10.1033 11.6418 8.45344 11.3272 7.78812C11.0259 7.13123 10.7189 7.22242 10.4891 7.21398C10.2744 7.20216 10.0239 7.20216 9.77335 7.20216C9.58418 7.20637 9.39803 7.2456 9.22657 7.31738C9.05511 7.38915 8.90205 7.49193 8.77699 7.61925C8.4342 7.95361 7.47551 8.76247 7.47551 10.4123C7.47551 12.0621 8.81278 13.6477 9.00113 13.8723C9.18571 14.0969 11.6267 17.4725 15.3729 18.9247C16.2582 19.2709 16.955 19.4752 17.4994 19.6306C18.394 19.8873 19.202 19.8484 19.8462 19.7657C20.5619 19.6677 22.0517 18.9551 22.3663 18.1733C22.6752 17.3898 22.6752 16.7211 22.581 16.5809C22.4887 16.4391 22.2382 16.3563 21.8653 16.1891Z" fill="black"/>
</svg>
